PathFileType	4	(X/Y/Z)	8_coords_data.trc
DataRate	CameraRate	NumFrames	NumMarkers	Units	OrigDataRate	OrigDataStartFrame	OrigNumFrames
30.0	30.0	7	21	m	30.0	10	47
Frame#	Time	THUMB_TIP	THUMB_IP	THUMB_MCP	THUMB_CMC	INDEX_TIP	INDEX_DIP	INDEX_PIP	INDEX_MCP	MIDDLE_TIP	MIDDLE_DIP	MIDDLE_PIP	MIDDLE_MCP	RING_TIP	RING_DIP	RING_PIP	RING_MCP	PINKY_TIP	PINKY_DIP	PINKY_PIP	PINKY_MCP	WRIST
X1	Y1	Z1	X2	Y2	Z2	X3	Y3	Z3	X4	Y4	Z4	X5	Y5	Z5	X6	Y6	Z6	X7	Y7	Z7	X8	Y8	Z8	X9	Y9	Z9	X10	Y10	Z10	X11	Y11	Z11	X12	Y12	Z12	X13	Y13	Z13	X14	Y14	Z14	X15	Y15	Z15	X16	Y16	Z16	X17	Y17	Z17	X18	Y18	Z18	X19	Y19	Z19	X20	Y20	Z20	X21	Y21	Z21
8	0.2999999999999987	0.5453144456751343	0.006024355740860798	-0.10838837312974775	0.5278871151048193	-0.006116679879091924	-0.11715669128478785	0.49833930127071113	-0.015164624078867983	-0.11343091574369167	0.4814871352116189	-0.024492398036890406	-0.0731955192363274	0.4982528873789258	-0.004264044974092718	-0.10872641635439918	0.5146722788627212	-0.006669441728604508	-0.11598021878865766	0.5270420756037579	0.013410454762888602	-0.12468629244308793	0.49357158777529	0.03303231020073372	-0.1071265279884975	0.5039336800336633	-0.015712526413068528	-0.10153263391056286	0.5208822479915171	-0.009387048741191006	-0.10238959155280296	0.5383806203976909	0.013427928845664572	-0.1071533412152156	0.5047570552239643	0.036213398253683526	-0.08854081398583584	0.5079544553124711	-0.008507940471336184	-0.08442123008468122	0.5258184883444438	-0.008830324739335205	-0.08682381040931818	0.5452339519356547	0.006578302027346439	-0.08923087785819964	0.5174024507697367	0.031091796475190447	-0.07313066149918629	0.5097701649724883	-0.01850792034669224	-0.06989575310754083	0.5257093434608507	-0.021793016811092913	-0.07520147929117502	0.5423731581912437	-0.009020851245317374	-0.07516854919008843	0.5241160362407407	0.016946693931493617	-0.05804407703545689	0.4622830810018608	-0.023011742144276925	-0.051989820119430985
9	0.33333333333333187	0.545425481955856	0.005816802857659509	-0.10831510221932224	0.5279963925622815	-0.006291385985823794	-0.11712524443391399	0.4984320542568179	-0.01528547485924614	-0.113400158408454	0.48150120234054905	-0.02453505953700108	-0.0731797477109186	0.4983487018289411	-0.004286375852249558	-0.10868114383751869	0.5147619795095209	-0.0067767686111297465	-0.11592008434609474	0.5271848505258708	0.013265418523714767	-0.1246374717737022	0.4937049967835918	0.03293517717430228	-0.10714930200030269	0.5040087657506621	-0.015867696806862397	-0.10141102971030203	0.5209360524729612	-0.0094924229048442	-0.10231813879708579	0.5384815430185723	0.013285352510201909	-0.10708660381799041	0.5048637411568166	0.03613540798227077	-0.0885429719216464	0.5080152460242596	-0.008653423363344293	-0.08434667546804406	0.5258803397860821	-0.00892326473575733	-0.0867478440408494	0.5453200498708266	0.0064562745984433345	-0.08914522191862768	0.5174895339433595	0.031011928375831666	-0.0731076695874256	0.5098138330761374	-0.018578556985996086	-0.06983138963871197	0.5257588112996555	-0.021864746226909926	-0.07511898169223073	0.5424296471629	-0.009101795952692893	-0.07507049541966301	0.5241611617175312	0.01688527728111111	-0.05798781661119562	0.4622830810018609	-0.023011742144276925	-0.051989820119430985
10	0.3666666666666651	0.5455297635862684	0.005618856714505016	-0.10824421650678157	0.5281061268218593	-0.0064647748380763925	-0.11709874813772604	0.4985285179191191	-0.015414681354901205	-0.11337259396262243	0.4815174570164833	-0.024563325231177546	-0.07316294186027408	0.498431480509656	-0.004322956110595744	-0.10864260248280316	0.5148442463762711	-0.0068539758728516365	-0.1158686010692094	0.5273173435690249	0.01315417961614418	-0.12459244158519117	0.49381996952111384	0.032851280162000784	-0.10716871477429459	0.5040515811221372	-0.015902800586623855	-0.10138138899135739	0.5210056982337915	-0.009595130820981734	-0.10225957752004407	0.5385877903639932	0.01315511162396954	-0.10702466461484454	0.504968818595552	0.03605699677228125	-0.08854721038309779	0.5080738248687818	-0.008744413705756071	-0.08428724123536004	0.5259394035935407	-0.009018860094434533	-0.08668427607223357	0.5454035973340596	0.0063308688347132325	-0.08907403815939577	0.5175786946411345	0.030927640925020095	-0.07308984512794249	0.5098508085362808	-0.018668842928883045	-0.06979102906296052	0.5258044564598395	-0.021950385016084373	-0.07505530484041142	0.5424782566077045	-0.009191380119233372	-0.0749904845411955	0.5242069771278669	0.016820106880427566	-0.057947998183972255	0.4622830810018609	-0.023011742144276925	-0.051989820119430985
11	0.39999999999999825	0.5456345229926163	0.005386751895934738	-0.10816832116883228	0.5282127342439106	-0.006663485805788794	-0.1170718624939134	0.498617895651533	-0.015557030323608778	-0.11334756462710999	0.4815337383699656	-0.02460139748568746	-0.07314531353819484	0.49853212050194884	-0.0044316117115820175	-0.10858979776465116	0.5149431532738854	-0.006966457095813117	-0.11581839114348103	0.5274784895208141	0.01299852225438003	-0.12455193439480786	0.49397149763389514	0.032738781535233796	-0.10719567465330214	0.50412053294531	-0.016008409095640386	-0.10129197924670673	0.5210917686101149	-0.00975104753113476	-0.10219894465988676	0.5387049218319193	0.01297695399175236	-0.10695544866607472	0.5050985349641497	0.035958628977719176	-0.08855432648471884	0.5081109865789655	-0.008814350693217565	-0.0842620687713984	0.525982006320739	-0.009146909249416635	-0.08661069777484652	0.5454839152754488	0.006155461458336786	-0.08899669376073989	0.5176867212350479	0.03082305962072074	-0.07307355216181363	0.5098848956474167	-0.018778397606299957	-0.06974608702211688	0.525846227777945	-0.022064536310689498	-0.07498413713971591	0.5425281728655984	-0.009316259128851367	-0.0749056770381462	0.5242676532795219	0.016731685630717585	-0.057907399206290205	0.4622830810018609	-0.023011742144276925	-0.051989820119430985
12	0.43333333333333146	0.545729744403924	0.005161121241080369	-0.10807824590541737	0.5283093524709204	-0.006853159288454647	-0.11703296579261518	0.49869442913884154	-0.015684063533220494	-0.11331928214226614	0.4815474596911722	-0.02465964949994426	-0.07312835909595322	0.4986355669797231	-0.004554889509049809	-0.10854808981325938	0.5150459886333503	-0.0071240093842432906	-0.11576596236803985	0.5276312073328353	0.012807242441616462	-0.12450480118908985	0.49413756377576146	0.0326267084574281	-0.1072131644209936	0.504136468233369	-0.01598242639955061	-0.10129938159608468	0.5211799513340826	-0.009914811141543245	-0.10213826709273521	0.5388343670575465	0.012782075362162582	-0.10689037173184061	0.5052411464933221	0.035846083612423696	-0.0885683910377326	0.5081588515665428	-0.008944628946643829	-0.08421554934523462	0.5260324495060301	-0.009296725246621729	-0.08654160284700498	0.5455703365167843	0.0059601697548975485	-0.08892448032342244	0.5178034155632764	0.03070480701992062	-0.0730681925679587	0.5098960617884202	-0.01893134760087367	-0.06970566660540521	0.525868913646042	-0.022213904993639955	-0.07491074302152609	0.5425619746809426	-0.009480307909079722	-0.07481463072697778	0.5243368809757791	0.016628750842567208	-0.05787218516734674	0.462283081001861	-0.023011742144276925	-0.051989820119430985
13	0.4666666666666647	0.5458006560644908	0.005016818812284218	-0.10800205223859266	0.5283843135140557	-0.006975142355928332	-0.11699448680916302	0.4987542725581786	-0.015763912023350035	-0.11330149335045601	0.48155532366322584	-0.024680181996333705	-0.07311957842996375	0.4986855072894998	-0.00458462540067095	-0.10849787903308267	0.5150950295243711	-0.007176719640993645	-0.11570957976678939	0.527739563886168	0.012718009451259449	-0.12444601714819375	0.49424078139837047	0.03257413543379939	-0.10720647171333	0.5041662325974899	-0.01596855553900467	-0.10127885201427579	0.521247029698293	-0.010001685460819476	-0.10208061998024485	0.5389298188027233	0.012675513751692957	-0.10682120595291361	0.5053329093718815	0.035783377793793925	-0.08856135334924817	0.5081917779034869	-0.009053017903560168	-0.08413488378750493	0.526063876333857	-0.0093828782749098	-0.08647567208006458	0.5456276785140955	0.00584175020312927	-0.08885228962569032	0.5178781186811645	0.03063681092321957	-0.073044452108635	0.5099186076284717	-0.01899052354306785	-0.06965367596474514	0.5258987724159501	-0.02227375150641686	-0.07483583261094186	0.5425960589282963	-0.009545718371577472	-0.0747367637306387	0.5243716236719601	0.016581737389779527	-0.057821993084072265	0.4622830810018608	-0.023011742144276925	-0.051989820119430985
14	0.4999999999999978	0.545902132474018	0.00486468100390558	-0.10790931999310804	0.5284834668834023	-0.007097160014009063	-0.11693730141225349	0.49883150859198455	-0.015823302133556427	-0.11327181192331919	0.48156533069998353	-0.02469634093758899	-0.0731091640601129	0.49875486027958127	-0.004616151232484156	-0.10845668789329353	0.5151694854146951	-0.007238876729436128	-0.11564566505568098	0.5278682214774474	0.01262794377673615	-0.12436698252405057	0.49436208931277525	0.0325234041887037	-0.10718717296866379	0.5041849101283797	-0.01591651332007815	-0.10125244526475354	0.5213226325509234	-0.010109162660489335	-0.10200951097155436	0.539035156649513	0.01254834002746752	-0.10673323958379652	0.5054429207506226	0.035715743057487925	-0.08854035511876716	0.5082461835653727	-0.009154132914491964	-0.08402974687837445	0.5261139511694138	-0.009481517047125299	-0.08640370991045351	0.5456977488361154	0.005718980632776094	-0.08877008228880232	0.5179624327164473	0.030561876681596045	-0.07301243050785457	0.5099019963869507	-0.019073857817502926	-0.06959674061116002	0.5258964852143688	-0.022342436014995304	-0.07474384889800156	0.5426155913177061	-0.009643079050384085	-0.07464463805821656	0.5244135747672626	0.016523956719204813	-0.05776695209329713	0.4622830810018608	-0.023011742144276925	-0.051989820119430985
